HIERARCHY
ROOT hip
{
	OFFSET 0.000000 0.000000 0.000000
	CHANNELS 6 Xposition Yposition Zposition Zrotation Yrotation Xrotation 
	JOINT lhipjoint
	{
		OFFSET 0.000000 0.000000 0.000000
		CHANNELS 3 Zrotation Yrotation Xrotation
		JOINT lfemur
		{
			OFFSET 1.363060 -1.794630 0.839290
			CHANNELS 3 Zrotation Yrotation Xrotation
			JOINT ltibia
			{
				OFFSET 2.448110 -6.726130 0.000000
				CHANNELS 3 Zrotation Yrotation Xrotation
				JOINT lfoot
				{
					OFFSET 2.562200 -7.039590 0.000000
					CHANNELS 3 Zrotation Yrotation Xrotation
					JOINT ltoes
					{
						OFFSET 0.157640 -0.433110 2.322550
						CHANNELS 3 Zrotation Yrotation Xrotation
						End Site
						{
							OFFSET 0.000000 0.000000 0.000000
						}
					}
				}
			}
		}
	}
	JOINT rhipjoint
	{
		OFFSET 0.000000 0.000000 0.000000
		CHANNELS 3 Zrotation Yrotation Xrotation
		JOINT rfemur
		{
			OFFSET -1.305520 -1.794630 0.839290
			CHANNELS 3 Zrotation Yrotation Xrotation
			JOINT rtibia
			{
				OFFSET -2.542530 -6.985550 0.000000
				CHANNELS 3 Zrotation Yrotation Xrotation
				JOINT rfoot
				{
					OFFSET -2.568260 -7.056230 0.000000
					CHANNELS 3 Zrotation Yrotation Xrotation
					JOINT rtoes
					{
						OFFSET -0.164730 -0.452590 2.363150
						CHANNELS 3 Zrotation Yrotation Xrotation
						End Site
						{
							OFFSET 0.000000 0.000000 0.000000
						}
					}
				}
			}
		}
	}
	JOINT lowerback
	{
		OFFSET 0.000000 0.000000 0.000000
		CHANNELS 3 Zrotation Yrotation Xrotation
		JOINT upperback
		{
			OFFSET 0.028270 2.035590 -0.193380
			CHANNELS 3 Zrotation Yrotation Xrotation
			JOINT thorax
			{
				OFFSET 0.056720 2.048850 -0.042750
				CHANNELS 3 Zrotation Yrotation Xrotation
				JOINT lowerneck
				{
					OFFSET 0.000000 0.000000 0.000000
					CHANNELS 3 Zrotation Yrotation Xrotation
					JOINT upperneck
					{
						OFFSET -0.054170 1.746240 0.172020
						CHANNELS 3 Zrotation Yrotation Xrotation
						JOINT head
						{
							OFFSET 0.104070 1.761360 -0.123970
							CHANNELS 3 Zrotation Yrotation Xrotation
							End Site
							{
								OFFSET 0.000000 0.000000 0.000000
							}
						}
					}
				}
				JOINT lclavicle
				{
					OFFSET 0.000000 0.000000 0.000000
					CHANNELS 3 Zrotation Yrotation Xrotation
					JOINT lhumerus
					{
						OFFSET 3.362410 1.200890 -0.311210
						CHANNELS 3 Zrotation Yrotation Xrotation
						JOINT lradius
						{
							OFFSET 4.983000 -0.000000 -0.000000
							CHANNELS 3 Zrotation Yrotation Xrotation
							JOINT lwrist
							{
								OFFSET 3.483560 -0.000000 -0.000000
								CHANNELS 3 Zrotation Yrotation Xrotation
								JOINT lhand
								{
									OFFSET 0.000000 0.000000 0.000000
									CHANNELS 3 Zrotation Yrotation Xrotation
									JOINT lfingers
									{
										OFFSET 0.715260 -0.000000 -0.000000
										CHANNELS 3 Zrotation Yrotation Xrotation
										End Site
										{
											OFFSET 0.000000 0.000000 0.000000
										}
									}
								}
								JOINT lthumb
								{
									OFFSET 0.000000 0.000000 0.000000
									CHANNELS 3 Zrotation Yrotation Xrotation
									End Site
									{
										OFFSET 0.000000 0.000000 0.000000
									}
								}
							}
						}
					}
				}
				JOINT rclavicle
				{
					OFFSET 0.000000 0.000000 0.000000
					CHANNELS 3 Zrotation Yrotation Xrotation
					JOINT rhumerus
					{
						OFFSET -3.136600 1.374050 -0.404650
						CHANNELS 3 Zrotation Yrotation Xrotation
						JOINT rradius
						{
							OFFSET -5.241900 -0.000000 -0.000000
							CHANNELS 3 Zrotation Yrotation Xrotation
							JOINT rwrist
							{
								OFFSET -3.444170 -0.000000 -0.000000
								CHANNELS 3 Zrotation Yrotation Xrotation
								JOINT rhand
								{
									OFFSET 0.000000 0.000000 0.000000
									CHANNELS 3 Zrotation Yrotation Xrotation
									JOINT rfingers
									{
										OFFSET -0.622530 -0.000000 -0.000000
										CHANNELS 3 Zrotation Yrotation Xrotation
										End Site
										{
											OFFSET 0.000000 0.000000 0.000000
										}
									}
								}
								JOINT rthumb
								{
									OFFSET 0.000000 0.000000 0.000000
									CHANNELS 3 Zrotation Yrotation Xrotation
									End Site
									{
										OFFSET 0.000000 0.000000 0.000000
									}
								}
							}
						}
					}
				}
			}
		}
	}
}
MOTION
Frames: 11
Frame Time: 0.008333
8.727744 16.425867 3.961855 -174.820405 24.633910 179.738168 6.738416 1.885568 -2.114571 4.721144 13.801542 -10.648684 5.786032 13.900393 45.797237 5.444931 -16.056962 10.608762 2.267400 -9.402100 -27.061500 -11.076431 -3.997826 0.729123 19.173050 6.540588 -28.733159 -8.602775 -17.105757 55.386824 -4.239476 12.174220 19.054544 -5.317300 -13.732500 42.176300 10.475020 0.281308 9.093545 0.623291 0.895018 -2.826496 -6.463728 0.968000 -5.184434 3.661977 -18.275288 1.692398 3.274521 -23.533241 1.440425 1.543600 -11.112800 -6.797500 -4.096130 -4.394429 2.841813 -48.988975 -0.106067 68.607457 137.079925 -43.629015 -94.974113 0.999621 2.210994 -11.671317 16.446503 -20.830963 -6.012700 -7.125000 0.000000 0.000000 -8.720000 6.416100 7.783800 7.383062 7.617941 4.337075 -7.750810 12.315798 5.735750 -14.783167 27.876642 -3.660196 0.416958 0.146196 1.004863 -14.347548 -2.015593 0.571800 7.125000 0.000000 0.000000 9.503500 -32.128200 3.030300 
8.773120 16.442087 3.961059 -174.896156 24.518461 179.778804 6.750026 1.881935 -2.135089 4.574420 13.892826 -10.216622 5.707205 13.800428 45.426559 5.377797 -15.613654 10.547781 2.151100 -9.174000 -26.341300 -11.087783 -3.997651 0.701346 19.284098 6.405572 -28.688466 -8.600206 -17.094072 55.362600 -4.237519 12.237089 18.963930 -5.340500 -13.757300 42.273900 10.350028 0.009171 8.745485 0.666230 0.479182 -2.814143 -5.978374 0.765133 -5.085268 3.153592 -18.187088 2.124480 3.200481 -23.406552 1.560133 1.676800 -11.010000 -6.817500 -4.031425 -4.288277 2.887552 -49.746689 0.363722 68.742881 137.041996 -43.688676 -94.793523 1.029233 2.258964 -11.231578 16.172177 -20.893538 -5.917000 -7.125000 0.000000 0.000000 -8.910700 6.339000 7.971700 7.276555 7.488292 4.379370 -6.681834 12.928465 6.180252 -17.383924 30.899538 -4.701590 0.389911 0.012562 0.979727 -14.264791 -1.331285 0.352900 7.125000 0.000000 0.000000 9.497000 -31.288500 3.222600 
8.812227 16.457610 3.960661 -174.913070 24.492395 179.866401 6.756964 1.877448 -2.157257 4.471973 14.017580 -9.749576 5.616357 13.688983 45.015835 5.312289 -15.202997 10.527694 2.019200 -8.905900 -25.501400 -11.103985 -4.000445 0.683211 19.440956 6.284279 -28.697143 -8.589138 -17.081957 55.316872 -4.243579 12.334182 18.939953 -5.338500 -13.755200 42.265400 10.281767 -0.211278 8.396335 0.707188 0.138170 -2.802307 -5.579687 0.598573 -4.969454 2.795524 -18.100944 2.483285 3.108920 -23.277597 1.693343 1.751800 -10.917200 -6.857400 -3.958562 -4.183223 2.921767 -50.418803 0.627955 68.762205 136.887608 -43.803692 -94.508263 1.053149 2.301263 -10.910907 15.848769 -20.845967 -5.773200 -7.125000 0.000000 0.000000 -9.123600 6.388600 8.158400 7.201679 7.370332 4.424443 -5.515025 13.021123 7.319160 -20.732427 34.395931 -6.194599 0.379650 -0.095318 0.014001 -14.134207 -1.036364 0.242700 7.125000 0.000000 0.000000 9.563700 -30.865900 3.344100 
8.842776 16.470148 3.963646 -174.925329 24.608315 179.974769 6.764570 1.872085 -2.185640 4.338157 14.218485 -9.241717 5.517732 13.567908 44.564760 5.245532 -14.794986 10.467517 1.907100 -8.669800 -24.767900 -11.124950 -4.001895 0.694749 19.567983 6.312855 -28.796332 -8.573309 -17.079917 55.273456 -4.255511 12.400300 19.013852 -5.364200 -13.782500 42.373200 10.201744 -0.387579 8.115725 0.744498 -0.133568 -2.794806 -5.208197 0.466639 -4.911765 2.543714 -17.972735 2.804900 3.026823 -23.100484 1.818491 1.783900 -10.811100 -6.908100 -3.862884 -4.112027 2.958875 -51.141377 0.895642 68.694567 136.672611 -43.936880 -94.176469 1.071797 2.350659 -10.575589 15.588736 -20.755347 -5.650400 -7.125000 0.000000 0.000000 -9.292300 6.462700 8.299900 7.132508 7.283909 4.423656 -4.253451 13.313599 8.176144 -23.932745 37.475326 -7.740784 0.375666 -0.214056 -0.728706 -13.979089 -0.637687 0.105600 7.125000 0.000000 0.000000 9.635900 -30.328700 3.495600 
8.863574 16.478607 3.970313 -174.898562 24.884396 -179.883654 6.771422 1.865667 -2.219792 4.215871 14.503912 -8.690033 5.415303 13.439878 44.088090 5.180081 -14.404485 10.358096 1.827300 -8.496600 -24.233000 -11.156668 -4.001037 0.734692 19.706805 6.516343 -28.961576 -8.551324 -17.086758 55.224161 -4.270786 12.445379 19.126911 -5.374800 -13.793800 42.417600 10.157141 -0.500035 7.922539 0.776908 -0.302850 -2.791417 -4.891495 0.383533 -4.916909 2.405077 -17.851290 3.113140 2.945790 -22.933784 1.921543 1.778600 -10.716100 -6.991900 -3.748692 -4.068343 2.992145 -51.867839 1.137871 68.601666 136.428958 -44.067371 -93.827295 1.082543 2.404565 -10.261237 15.414639 -20.628474 -5.559700 -7.125000 0.000000 0.000000 -9.401900 6.554500 8.383700 7.081492 7.230433 4.407001 -2.897882 13.467160 9.102259 -27.359470 40.448161 -9.528225 0.380855 -0.325163 -1.447778 -13.753716 -0.414862 0.017900 7.125000 0.000000 0.000000 9.777300 -29.978500 3.631300 
8.880888 16.486866 3.977080 -174.874579 25.203542 -179.744928 6.778481 1.859429 -2.253118 4.065955 14.794571 -8.114223 5.304914 13.302650 43.577736 5.113334 -14.019781 10.261171 1.752200 -8.329600 -23.719700 -11.189692 -4.000038 0.779912 19.832832 6.740958 -29.139231 -8.524312 -17.091386 55.161195 -4.288830 12.486616 19.289117 -5.384800 -13.804500 42.459900 10.086372 -0.586411 7.754622 0.808454 -0.435026 -2.791030 -4.575141 0.320520 -4.937192 2.332924 -17.708326 3.367711 2.851264 -22.745819 2.048561 1.727700 -10.620300 -7.060700 -3.621776 -4.044509 3.021578 -52.585465 1.374120 68.477501 136.189250 -44.180791 -93.493944 1.087155 2.465089 -10.014920 15.339751 -20.505046 -5.514200 -7.125000 0.000000 0.000000 -9.448600 6.621800 8.414100 7.037168 7.190143 4.367884 -1.462292 13.553633 10.025819 -31.006797 43.286070 -11.564207 0.397728 -0.425744 -1.911124 -13.375313 -0.494569 0.010900 7.125000 0.000000 0.000000 10.060900 -29.946700 3.747300 
8.896113 16.496817 3.982752 -174.824363 25.501360 -179.595817 6.787266 1.853247 -2.284429 3.919540 15.049524 -7.535912 5.187799 13.156369 43.038259 5.049037 -13.660466 10.167221 1.707400 -8.227900 -23.408600 -11.229967 -3.998136 0.819430 19.994386 6.988666 -29.256921 -8.487735 -17.086063 55.056194 -4.300781 12.505842 19.396534 -5.394500 -13.814700 42.500200 10.030310 -0.662782 7.574408 0.839059 -0.555285 -2.790418 -4.297271 0.263481 -4.943760 2.330489 -17.592598 3.595954 2.754417 -22.589465 2.174347 1.658700 -10.542600 -7.139900 -3.490472 -4.019733 3.050311 -53.261571 1.566031 68.353734 135.926570 -44.297830 -93.150276 1.083389 2.535199 -9.799828 15.454661 -20.384771 -5.553400 -7.125000 0.000000 0.000000 -9.373700 6.647100 8.340800 7.000006 7.155362 4.318016 0.065346 13.542065 10.973981 -34.878613 45.960497 -13.863311 0.423115 -0.520545 -2.074221 -12.990171 -0.732119 0.043600 7.125000 0.000000 0.000000 10.359400 -30.082200 3.827700 
8.914323 16.511345 3.985140 -174.780552 25.682147 -179.456847 6.798066 1.848897 -2.309127 3.754767 15.206185 -6.984835 5.061223 13.001540 42.469373 4.999237 -13.387695 10.097051 1.766900 -8.362700 -23.821200 -11.268567 -3.998007 0.841541 20.165141 7.154286 -29.297553 -8.444179 -17.064433 54.906966 -4.301892 12.485441 19.426630 -5.396400 -13.816800 42.508500 9.949718 -0.750516 7.336447 0.870008 -0.702276 -2.790804 -4.022912 0.194549 -4.918014 2.326101 -17.475714 3.784783 2.656232 -22.431253 2.329213 1.584600 -10.467800 -7.184700 -3.368251 -3.991191 3.076908 -53.872226 1.726059 68.257680 135.679277 -44.405558 -92.824467 1.070599 2.608570 -9.703657 15.658249 -20.247588 -5.627400 -7.125000 0.000000 0.000000 -9.240300 6.674400 8.213900 6.955516 7.113165 4.263406 1.706374 13.452319 11.857596 -38.992017 48.447688 -16.440913 0.454712 -0.611335 -1.766644 -12.549840 -1.108378 0.108000 7.125000 0.000000 0.000000 10.709500 -30.363700 3.887800 
8.934822 16.528958 3.983747 -174.758434 25.777087 -179.333741 6.811536 1.845472 -2.330303 3.556482 15.265638 -6.447034 4.923493 12.839790 41.879474 4.974415 -13.252046 10.108923 1.753100 -8.331600 -23.725900 -11.304672 -3.998392 0.843499 20.321543 7.244329 -29.255948 -8.392690 -17.026421 54.713377 -4.297621 12.465128 19.412911 -5.402100 -13.822800 42.532000 9.856223 -0.822010 7.033919 0.897446 -0.840740 -2.786541 -3.774634 0.131006 -4.821324 2.325653 -17.411261 3.925164 2.565386 -22.335892 2.480431 1.526200 -10.421700 -7.216400 -3.256236 -3.937951 3.100643 -54.402701 1.816409 68.242021 135.486692 -44.485309 -92.551394 1.049945 2.683447 -9.674450 15.976737 -20.120994 -5.753900 -7.125000 0.000000 0.000000 -9.032600 6.671900 8.024800 6.906519 7.053817 4.215961 3.463076 13.273904 12.600894 -43.387700 50.736480 -19.332177 0.484241 -0.697079 -1.063806 -11.995101 -1.454039 0.161800 7.125000 0.000000 0.000000 11.145700 -30.619900 3.981900 
8.953430 16.546671 3.981856 -174.722106 25.840976 -179.216324 6.829053 1.842396 -2.347768 3.362064 15.296000 -5.929595 4.782869 12.672329 41.279913 4.953981 -13.142509 10.161376 1.735700 -8.292500 -23.606000 -11.338406 -3.999780 0.841793 20.492662 7.320773 -29.173648 -8.334631 -16.979541 54.487870 -4.288562 12.428497 19.363835 -5.400000 -13.820500 42.523300 9.838672 -0.857330 6.746782 0.912872 -0.927302 -2.784043 -3.661592 0.088715 -4.720401 2.378430 -17.389107 4.010766 2.478082 -22.281752 2.642885 1.467100 -10.402500 -7.209700 -3.169732 -3.883749 3.113482 -54.818837 1.824953 68.339262 135.264245 -44.580679 -92.259067 1.023369 2.753206 -9.708715 16.387456 -20.025736 -5.926700 -7.125000 0.000000 0.000000 -8.765900 6.628600 7.789400 6.852759 7.000657 4.186879 5.335976 12.942210 13.329453 -48.052148 52.750070 -22.527576 0.505800 -0.781170 0.015539 -11.497722 -1.678616 0.187300 7.125000 0.000000 0.000000 11.525500 -30.760100 4.083000 
8.969153 16.565379 3.980065 -174.671683 25.888903 -179.104844 6.845319 1.839585 -2.364272 3.172866 15.316556 -5.424152 4.644793 12.504159 40.680053 4.938708 -13.056912 10.161259 1.759400 -8.345900 -23.769700 -11.374194 -4.000575 0.834359 20.670188 7.382349 -29.063279 -8.270883 -16.925121 54.238192 -4.278500 12.361521 19.348797 -5.412900 -13.834200 42.577500 9.823132 -0.895982 6.472281 0.930626 -1.015602 -2.780733 -3.521073 0.046805 -4.615579 2.390856 -17.362436 4.090225 2.403859 -22.226657 2.797878 1.423500 -10.380700 -7.192300 -3.084966 -3.830261 3.124944 -55.224832 1.828561 68.393279 135.090091 -44.650510 -92.018755 0.989412 2.820692 -9.831737 16.753312 -19.880964 -6.069100 -7.125000 0.000000 0.000000 -8.522000 6.644800 7.564900 6.792029 6.943474 4.164890 7.180010 12.581994 14.157198 -53.060071 54.537221 -26.056004 0.522346 -0.867083 1.143467 -11.081074 -1.766079 0.183500 7.125000 0.000000 0.000000 11.826200 -30.763800 4.192500 
